<?xml version="1.0" encoding="utf-8"?>
<!-- Generator: Adobe Illustrator 25.4.1, SVG Export Plug-In . SVG Version: 6.00 Build 0)  -->
<svg version="1.1" id="Layer_1" xmlns="http://www.w3.org/2000/svg" xmlns:xlink="http://www.w3.org/1999/xlink" x="0px" y="0px"
	 viewBox="0 0 637.36 614.4" style="enable-background:new 0 0 637.36 614.4;" xml:space="preserve">
<style type="text/css">
	.st0{clip-path:url(#SVGID_00000103264915519699604570000011483042653449183104_);}
	.st1{clip-path:url(#SVGID_00000023978842517367187860000017514095836170617991_);}
	.st2{clip-path:url(#SVGID_00000122691526806686633410000017348153921103645613_);}
	.st3{clip-path:url(#SVGID_00000091016301093099198570000012925750761500472741_);}
</style>
<g>
	<g>
		<defs>
			<rect id="SVGID_1_" x="49.52" y="48.97" width="544.32" height="500.16"/>
		</defs>
		<clipPath id="SVGID_00000140717549198282880710000003216184265846984072_">
			<use xlink:href="#SVGID_1_"  style="overflow:visible;"/>
		</clipPath>
		<path style="clip-path:url(#SVGID_00000140717549198282880710000003216184265846984072_);" d="M-962.32,116.22h2016v-0.11h-2016
			V116.22z M-962.32,140.22h2016v-0.11h-2016V140.22z M-962.32,164.22h2016v-0.11h-2016V164.22z M-962.32,188.22h2016v-0.11h-2016
			V188.22z M-962.32,212.22h2016v-0.11h-2016V212.22z M198.18,116.17v96h0.11v-96H198.18z"/>
	</g>
	<path d="M117.02,135.48c5.31-3.9,7.97-7.9,7.97-12c0-5.95-3.87-8.93-11.62-8.93c-4.1,0-8.58,2.15-13.44,6.43
		c-4.86,4.29-7.3,8.45-7.3,12.48c0,2.62,1.18,4.57,3.55,5.86c1.86,1.02,4.19,1.54,7.01,1.54
		C107.49,140.85,112.09,139.06,117.02,135.48z"/>
	<polyline points="93.54,128.17 93.54,205.84 93.65,205.84 93.65,128.17 	"/>
	<g>
		<defs>
			<rect id="SVGID_00000080198319256485756540000007014177630769035967_" x="49.52" y="48.97" width="544.32" height="500.16"/>
		</defs>
		<clipPath id="SVGID_00000163063133046789523520000014147601321733583271_">
			<use xlink:href="#SVGID_00000080198319256485756540000007014177630769035967_"  style="overflow:visible;"/>
		</clipPath>
		<polyline style="clip-path:url(#SVGID_00000163063133046789523520000014147601321733583271_);" points="-10.96,211.21 
			-10.96,223.3 94.46,210.82 94.46,198.73 		"/>
	</g>
	<path d="M247.59,135.48c5.31-3.9,7.97-7.9,7.97-12c0-5.95-3.87-8.93-11.62-8.93c-4.1,0-8.58,2.15-13.44,6.43
		c-4.86,4.29-7.3,8.45-7.3,12.48c0,2.62,1.18,4.57,3.55,5.86c1.86,1.02,4.19,1.54,7.01,1.54
		C238.05,140.85,242.66,139.06,247.59,135.48z"/>
	<path d="M224.1,128.17v77.67h0.11v-77.67H224.1z M320.24,92.22h37.44v-0.11h-37.44V92.22z"/>
	<path d="M350.31,87.48c5.31-3.9,7.97-7.9,7.97-12c0-5.95-3.87-8.93-11.62-8.93c-4.1,0-8.58,2.15-13.44,6.43
		c-4.86,4.29-7.3,8.45-7.3,12.48c0,2.62,1.18,4.57,3.55,5.86c1.86,1.02,4.19,1.54,7.01,1.54C340.77,92.85,345.38,91.06,350.31,87.48
		z"/>
	<polyline points="326.82,80.17 326.82,181.84 326.93,181.84 326.93,80.17 	"/>
	<polyline points="223.28,198.73 223.28,210.82 327.74,186.82 327.74,174.73 	"/>
	<path d="M453.96,123.98c5.31-3.9,7.97-7.9,7.97-12c0-5.95-3.87-8.93-11.62-8.93c-4.1,0-8.58,2.15-13.44,6.43
		c-4.86,4.29-7.3,8.45-7.3,12.48c0,2.62,1.18,4.57,3.55,5.86c1.86,1.02,4.19,1.54,7.01,1.54
		C444.42,129.35,449.03,127.56,453.96,123.98z"/>
	<path d="M430.5,116.65v77.19h0.11v-77.19H430.5z M526.64,92.22h38.4v-0.11h-38.4V92.22z"/>
	<path d="M557.65,99.94c5.31-3.9,7.97-7.9,7.97-12c0-5.95-3.87-8.93-11.62-8.93c-4.1,0-8.58,2.15-13.44,6.43
		c-4.86,4.29-7.3,8.45-7.3,12.48c0,2.62,1.18,4.57,3.55,5.86c1.86,1.02,4.19,1.54,7.01,1.54
		C548.11,105.32,552.72,103.53,557.65,99.94z"/>
	<polyline points="534.18,92.65 534.18,169.84 534.29,169.84 534.29,92.65 	"/>
	<polyline points="429.68,187.21 429.68,199.3 535.1,175.3 535.1,163.21 	"/>
	<path d="M113.92,109.89c23-18,91-18,114,0l-0.62,0.79c-22.38-12.79-90.38-12.79-112.77,0L113.92,109.89z"/>
	<g>
		<defs>
			<rect id="SVGID_00000176019628233849949870000007242538691635961006_" x="49.52" y="48.97" width="544.32" height="500.16"/>
		</defs>
		<clipPath id="SVGID_00000033339214868770639870000013135315573373821853_">
			<use xlink:href="#SVGID_00000176019628233849949870000007242538691635961006_"  style="overflow:visible;"/>
		</clipPath>
		<path style="clip-path:url(#SVGID_00000033339214868770639870000013135315573373821853_);" d="M-1073.68,404.22h2127.36v-0.11
			h-2127.36V404.22z M-1073.68,428.22h2127.36v-0.11h-2127.36V428.22z M-1073.68,452.22h2127.36v-0.11h-2127.36V452.22z
			 M-1073.68,476.22h2127.36v-0.11h-2127.36V476.22z M-1073.68,500.22h2127.36v-0.11h-2127.36V500.22z M388.26,404.17v96h0.11v-96
			H388.26z"/>
		<polyline style="clip-path:url(#SVGID_00000033339214868770639870000013135315573373821853_);" points="393.07,404.17 
			393.07,500.17 393.82,500.17 393.82,404.17 		"/>
	</g>
	<polyline points="412.26,404.17 412.26,500.17 412.37,500.17 412.37,404.17 	"/>
	<path d="M432.35,433.65c-0.26-0.06-1.25-0.1-2.98-0.1c-3.14,0-4.86,0.13-5.18,0.38c-0.83,0.64-1.87,2.21-3.12,4.7
		c-1.25,2.5-1.87,4.26-1.87,5.28c0,1.34,0.8,2.02,2.4,2.02h1.63c3.26,0,5.15-0.06,5.66-0.19c1.09-0.26,2.24-1.73,3.46-4.42
		c1.15-2.43,1.73-4.32,1.73-5.66C434.08,434.58,433.5,433.91,432.35,433.65z"/>
	<path d="M432.35,457.65c-0.26-0.06-1.25-0.1-2.98-0.1c-3.14,0-4.86,0.13-5.18,0.38c-0.83,0.64-1.87,2.21-3.12,4.7
		c-1.25,2.5-1.87,4.26-1.87,5.28c0,1.34,0.8,2.02,2.4,2.02h1.63c3.26,0,5.15-0.06,5.66-0.19c1.09-0.26,2.24-1.73,3.46-4.42
		c1.15-2.43,1.73-4.32,1.73-5.66C434.08,458.58,433.5,457.91,432.35,457.65z"/>
	<g>
		<defs>
			<rect id="SVGID_00000173838991176282015110000011202078589381007018_" x="49.52" y="48.97" width="544.32" height="500.16"/>
		</defs>
		<clipPath id="SVGID_00000065776495834977079470000002757544337517011603_">
			<use xlink:href="#SVGID_00000173838991176282015110000011202078589381007018_"  style="overflow:visible;"/>
		</clipPath>
		<polyline style="clip-path:url(#SVGID_00000065776495834977079470000002757544337517011603_);" points="12.08,380.22 
			49.52,380.22 49.52,380.11 12.08,380.11 		"/>
	</g>
	<path d="M116.06,399.48c5.31-3.9,7.97-7.9,7.97-12c0-5.95-3.87-8.93-11.62-8.93c-4.1,0-8.58,2.15-13.44,6.43
		c-4.86,4.29-7.3,8.45-7.3,12.48c0,2.62,1.18,4.57,3.55,5.86c1.86,1.02,4.19,1.54,7.01,1.54
		C106.52,404.85,111.13,403.06,116.06,399.48z"/>
	<path d="M73.54,384.4c0,5.89-3.36,11.94-10.08,18.14l0.29-10.94c0.06-1.22,1.01-3.18,2.83-5.9c1.82-2.72,3.44-4.08,4.85-4.08
		C72.84,381.62,73.54,382.55,73.54,384.4z M64.52,377.01L65,338.04c-0.13-0.06-0.38-0.1-0.77-0.1c-1.54,0-2.98,0.8-4.32,2.4
		l-0.86,80.16c6.01-6.02,11.01-12.29,14.98-18.82c5.12-8.45,7.68-15.97,7.68-22.56c0-6.34-1.86-9.5-5.57-9.5
		C71.27,369.62,67.4,372.08,64.52,377.01z"/>
	<polyline points="92.58,392.17 92.58,469.84 92.69,469.84 92.69,392.17 	"/>
	<path d="M189.96,411.94c5.31-3.9,7.97-7.9,7.97-12c0-5.95-3.87-8.93-11.62-8.93c-4.1,0-8.58,2.15-13.44,6.43
		c-4.86,4.29-7.3,8.45-7.3,12.48c0,2.62,1.18,4.57,3.55,5.86c1.86,1.02,4.19,1.54,7.01,1.54
		C180.42,417.32,185.03,415.53,189.96,411.94z"/>
	<path d="M147.45,396.87c0,5.89-3.36,11.94-10.08,18.14l0.29-10.94c0.06-1.22,1.01-3.18,2.83-5.9c1.82-2.72,3.44-4.08,4.85-4.08
		C146.74,394.09,147.45,395.02,147.45,396.87z M138.42,389.48l0.48-38.98c-0.13-0.06-0.38-0.1-0.77-0.1c-1.54,0-2.98,0.8-4.32,2.4
		l-0.86,80.16c6.01-6.02,11.01-12.29,14.98-18.82c5.12-8.45,7.68-15.97,7.68-22.56c0-6.34-1.86-9.5-5.57-9.5
		C145.18,382.09,141.3,384.55,138.42,389.48z"/>
	<polyline points="166.5,404.65 166.5,481.84 166.61,481.84 166.61,404.65 	"/>
	<polyline points="91.76,462.73 91.76,474.82 167.42,487.3 167.42,475.21 	"/>
	<path d="M263.9,423.48c5.31-3.9,7.97-7.9,7.97-12c0-5.95-3.87-8.93-11.62-8.93c-4.1,0-8.58,2.15-13.44,6.43
		c-4.86,4.29-7.3,8.45-7.3,12.48c0,2.62,1.18,4.57,3.55,5.86c1.86,1.02,4.19,1.54,7.01,1.54
		C254.36,428.85,258.97,427.06,263.9,423.48z"/>
	<polyline points="240.42,416.17 240.42,493.84 240.53,493.84 240.53,416.17 	"/>
	<path d="M337.81,411.94c5.31-3.9,7.97-7.9,7.97-12c0-5.95-3.87-8.93-11.62-8.93c-4.1,0-8.58,2.15-13.44,6.43
		c-4.86,4.29-7.3,8.45-7.3,12.48c0,2.62,1.18,4.57,3.55,5.86c1.86,1.02,4.19,1.54,7.01,1.54
		C328.27,417.32,332.88,415.53,337.81,411.94z"/>
	<polyline points="314.34,404.65 314.34,481.84 314.45,481.84 314.45,404.65 	"/>
	<polyline points="239.6,486.73 239.6,498.82 315.26,487.3 315.26,475.21 	"/>
	<path d="M383.49,266.7h-2.5c-1.79,0-2.82,0.1-3.07,0.29c-0.77,0.64-1.54,1.89-2.3,3.74c-0.77,1.86-1.15,3.33-1.15,4.42
		c0,0.32,0.16,0.48,0.48,0.48c3.26,0,5.36-0.16,6.29-0.48c0.93-0.32,1.78-1.28,2.54-2.88c0.77-1.6,1.15-2.94,1.15-4.03
		C384.93,267.4,384.45,266.89,383.49,266.7z M340.39,291.08h-2.4c-1.86,0-2.91,0.1-3.17,0.29c-0.58,0.45-1.28,1.54-2.11,3.26
		c-0.83,1.73-1.25,2.98-1.25,3.74c0,0.96,1.47,1.44,4.42,1.44c0.96,0,1.73-0.1,2.3-0.29c0.83-0.25,1.65-1.21,2.45-2.88
		c0.8-1.66,1.2-3.01,1.2-4.03C341.83,291.78,341.35,291.27,340.39,291.08z M378.31,257.1c2.05-3.13,4.26-6.4,6.62-9.79
		c0.13-0.19,0.19-0.64,0.19-1.34c0-2.18-1.28-3.26-3.84-3.26c-2.56,0-10.3,11.36-23.23,34.08h-2.59c-2.37,0.06-3.26,0.1-2.69,0.1
		c-2.56,0-3.84-0.54-3.84-1.63c0-3.01,1.86-5.5,5.57-7.49c3.2-1.73,6.37-2.59,9.5-2.59c0-0.51,0.03-1.23,0.1-2.16
		c0.06-0.93,0.1-1.65,0.1-2.16c0-1.47-0.75-3.44-2.26-5.9c-1.5-2.46-2.96-3.7-4.37-3.7c-1.09,0-2.94,0.67-5.57,2.02
		c-8.58,4.42-12.86,10.88-12.86,19.39c0,1.6,0.19,3.3,0.58,5.09c0.9,4.22,1.86,7.23,2.88,9.02c1.66,2.88,4.16,4.55,7.49,4.99
		c-5.12,9.73-7.74,14.75-7.87,15.07c-3.52,7.36-5.28,12.61-5.28,15.74c0,1.86,0.8,2.75,2.39,2.69c1.85-1.03,5.2-6.21,10.05-15.57
		l8.85-17.56c3.2,0,5.45,0.1,6.73,0.29c2.05,0.32,4.16,1.06,6.34,2.21c2.43,1.28,3.65,2.5,3.65,3.65c0,1.22-2.34,1.83-7.01,1.83
		c-1.6,0-2.96-0.7-4.08-2.11c-1.12-1.41-2.06-2.11-2.83-2.11c-1.98,0-3.65,1.25-4.99,3.74c-1.22,2.18-1.82,4.32-1.82,6.43
		c0,2.94,0.51,5.89,1.54,8.83h13.34c4.93,0,8.45-0.7,10.56-2.11c2.56-1.79,3.84-5.02,3.84-9.7c0-15.3-5.73-23.87-17.18-25.73
		C370.21,270.18,374.21,263.43,378.31,257.1z M326.47,325.64c-3.26-4.03-4.9-13.28-4.9-27.74c0-14.21,1.82-33.41,5.47-57.6h60.48
		c4.29,9.86,7.68,23.49,10.18,40.9c2.18,14.98,3.26,29.06,3.26,42.24v2.21H326.47z M406.05,310.76c0-29.57-5.28-58.37-15.84-86.4
		h-64.9c-6.85,28.54-10.27,53.34-10.27,74.4c0,8.19,0.51,16,1.54,23.42c1.54,11.14,3.94,17.6,7.2,19.39h80.54
		C405.47,331.4,406.05,321.13,406.05,310.76z"/>
	<path d="M455.04,320.19H425.3v11.48h26.99c2.28,4.41,3.83,12.75,4.65,25.03c0.3,4.41,0.45,8.36,0.45,11.87
		c0,7.69-0.58,12.79-1.74,15.29h-31.81v11.54h33.1c2.09-2.24,3.62-8.46,4.59-18.65c0.67-6.91,0.97-13.59,0.9-20.05
		C462.24,337.85,459.78,325.68,455.04,320.19z M432.02,361.46c0-1.27,0.34-3.36,1.01-6.27c0.75-3.25,1.42-5.17,2.02-5.77
		c0.37,0.6,0.8,2.11,1.29,4.54c0.45,2.28,0.67,3.88,0.67,4.82C437.01,359.15,435.35,360.05,432.02,361.46z M444.79,364.54
		c-0.11-0.56-0.19-0.95-0.22-1.18c-0.6-3.17-1.18-6.18-1.74-9.02l-0.22-1.12c-0.75-3.96-1.29-6.92-1.62-8.9
		c-1.31-6.64-3.1-9.97-5.38-9.97c-2.84,1.64-5.32,7.82-7.45,18.54c-1.64,8.33-2.46,14.62-2.46,18.87v1.68c0,1.2,0.09,2.3,0.28,3.3
		l0.56,2.46v0.11c0.07,0.45,0.15,0.75,0.22,0.9h3.92c0.22-1.19,0.3-2.33,0.22-3.42c-0.15-1.98-0.22-2.93-0.22-2.86
		c0.04-0.11,0.17-0.28,0.39-0.5c0.82-0.52,1.64-0.99,2.46-1.4c2.76-1.16,4.87-2,6.33-2.52c0.37,2.05,0.62,3.72,0.73,4.98
		c0.11,1.61,0.35,2.74,0.73,3.42c0.56,0.97,1.55,1.46,2.97,1.46c1.68,0,2.52-0.47,2.52-1.4c0,0.11-0.21-1.34-0.62-4.37
		C445.74,370.29,445.28,367.27,444.79,364.54z M459.46,383.86H416.4c-1.2-2.61-2.24-6.23-3.14-10.86
		c-1.05-5.49-1.57-10.98-1.57-16.46c0-9.93,1.77-18.22,5.32-24.86h39.2v-11.48h-38.53c-7.58,16.58-11.37,32-11.37,46.26
		c0,11.87,2.33,21.52,7,28.95h46.14V383.86z"/>
	<path d="M481.81,483.98c5.31-3.9,7.97-7.9,7.97-12c0-5.95-3.87-8.93-11.62-8.93c-4.1,0-8.58,2.15-13.44,6.43
		c-4.86,4.29-7.3,8.45-7.3,12.48c0,2.62,1.18,4.57,3.55,5.86c1.86,1.02,4.19,1.54,7.01,1.54
		C472.27,489.35,476.88,487.56,481.81,483.98z"/>
	<polyline points="482.14,474.25 482.14,397.93 482.03,397.93 482.03,474.25 	"/>
	<path d="M555.71,459.94c5.31-3.9,7.97-7.9,7.97-12c0-5.95-3.87-8.93-11.62-8.93c-4.1,0-8.58,2.15-13.44,6.43
		c-4.86,4.29-7.3,8.45-7.3,12.48c0,2.62,1.18,4.57,3.55,5.86c1.86,1.02,4.19,1.54,7.01,1.54
		C546.17,465.32,550.78,463.53,555.71,459.94z"/>
	<polyline points="557.02,450.25 557.02,373.93 556.91,373.93 556.91,450.25 	"/>
	<polyline points="481.23,391.21 481.23,403.3 557.84,379.3 557.84,367.21 	"/>
	<path d="M436.37,299.61c-2.46,0-5.7,0.18-9.7,0.53c-0.51-0.28-0.8-0.93-0.86-1.97l8.54-3.56c1.76-0.99,2.61-2.82,2.54-5.48
		c0,0.22,0.02-0.05,0.05-0.82v-1.15c0-1.92-0.5-2.88-1.49-2.88c-0.35,0-3.57,1.28-9.64,3.85c-0.67,0-1.01-0.26-1.01-0.77
		c0-0.7,0.62-1.76,1.87-3.17c2.18-2.5,4.86-4.4,8.06-5.71c1.09-0.45,1.79-0.93,2.11-1.44c0.32-0.51,0.59-1.79,0.82-3.84
		c0.16-0.74,0.24-1.42,0.24-2.06c0-1.76-0.61-2.56-1.82-2.4c-1.41,0.19-3.38,1.06-5.9,2.6c-2.53,1.54-4.64,3.22-6.34,5.05
		c-2.34,2.5-3.44,4.88-3.31,7.12c0.29,4.94,0.64,9.56,1.06,13.86c0.61,6.48,1.17,10.18,1.68,11.12h12.29c0.16,0,0.41,0,0.74,0
		c0.34,0,0.58,0,0.74,0c1.63,0,2.51-0.77,2.64-2.3c0.45-2.46,0.67-4.18,0.67-5.14c0-0.58-0.08-0.93-0.24-1.06
		C439.96,299.74,438.71,299.61,436.37,299.61z"/>
	<path d="M454.42,269.35c0,3.44-1.96,6.96-5.88,10.58l0.17-6.38c0.04-0.71,0.59-1.86,1.65-3.44c1.06-1.59,2.01-2.38,2.83-2.38
		C454.01,267.73,454.42,268.27,454.42,269.35z M449.15,265.04l0.28-22.74c-0.08-0.04-0.22-0.06-0.45-0.06c-0.9,0-1.74,0.47-2.52,1.4
		l-0.5,46.76c3.51-3.51,6.42-7.17,8.74-10.98c2.99-4.93,4.48-9.31,4.48-13.16c0-3.7-1.08-5.54-3.25-5.54
		C453.09,260.73,450.83,262.16,449.15,265.04z"/>
	<path d="M480.46,281.14c0-1.55,0.01-2.89,0.04-4.04c-1.2-1.01-1.92-1.59-2.16-1.72c-0.56,0.91-1.37,3-2.44,6.28
		c-1.17,3.63-2.09,6.12-2.76,7.48c-1.17,2.4-2.36,3.6-3.56,3.6c-1.68,0-3.13-1.15-4.36-3.44c-0.77-1.41-1.63-3.76-2.56-7.04
		c-0.88-3.07-1.56-4.95-2.04-5.64h-2.6c0.37,4.93,0.68,12.19,0.92,21.76c0.16,5.76,0.55,8.8,1.16,9.12c0.4,0.4,1.05,0.6,1.96,0.6
		c0.93,0,1.6-0.2,2-0.6c0-3.36,0.29-6.09,0.88-8.2c1.81,1.84,3.49,2.76,5.04,2.76c2.91,0,5.2-2.99,6.88-8.96
		c0.72,6.77,1.75,11.84,3.08,15.2h2.92C481.26,302.24,480.46,293.19,480.46,281.14z"/>
	<path d="M491,293.09c0.21-1.73,0.53-3.27,0.96-4.6l0.6,0.04c0.32,1.6,0.48,2.8,0.48,3.6C493.04,292.45,492.36,292.77,491,293.09z
		 M496.92,288.97c-0.91-4.43-1.41-6.77-1.52-7.04c-0.72-2.51-1.67-3.8-2.84-3.88c-1.68,1.04-3.15,4.61-4.4,10.72
		c-0.96,4.69-1.44,8.25-1.44,10.68c0,1.31,0.2,2.99,0.6,5.04h2.84c0.08-0.53,0.12-1.8,0.12-3.8c0.32-0.37,1.82-1.07,4.49-2.08
		l0.63,3.84c0.32,1.09,1.01,1.64,2.08,1.64c1.17,0,1.76-0.33,1.76-1l-0.36-2.68C498.4,296.75,497.75,292.94,496.92,288.97z"/>
	<path d="M509.09,293.9c-0.03-1.04-0.03-2.23,0-3.56c-0.56-0.32-1.01-0.48-1.36-0.48c-0.35,0-1.01,0.37-2,1.12v4.16
		c0,1.17,0.17,2.75,0.5,4.72c0.28,1.55,0.39,2.36,0.34,2.44c-0.08,0.13-0.2,0.2-0.36,0.2c-0.35,0-1.07-0.43-2.18-1.28
		c-1.1-0.85-1.72-1.24-1.85-1.16c-0.64,0.4-0.89,1.49-0.73,3.28c0.24,2.51,2.25,4.21,6.04,5.12c1.09,0,1.83-0.64,2.2-1.92
		c0.13-0.45,0.23-1.31,0.28-2.56C509.46,299.58,509.17,296.22,509.09,293.9z M511.77,284.54c0-0.91-0.19-1.55-0.56-1.92
		c-0.72-0.53-1.41-0.8-2.08-0.8c-0.61,0-1.79,0.56-3.52,1.68c-2.03,1.31-3.71,2.77-5.04,4.4c-1.68,2.05-2.52,4.05-2.52,6
		c0,1.28,0.18,2.24,0.54,2.88c0.36,0.64,0.98,0.96,1.86,0.96c0.32,0,0.55-0.28,0.68-0.84c0.21-0.96,0.45-1.73,0.72-2.32
		c0.53-1.17,1.43-2.31,2.68-3.4c2.48-2.19,4.73-3.39,6.76-3.6C511.61,286.46,511.77,285.44,511.77,284.54z"/>
	<path d="M515.15,271.53c-1.73,0-3.68,0.23-5.84,0.68c-2.37,0.51-3.93,1.09-4.68,1.76v7.36c3.57-1.31,6.68-1.96,9.32-1.96
		c0.85,0,1.8,0.04,2.84,0.12c0.03,0.11,0.11,0.25,0.26,0.44c0.15,0.19,0.22,0.36,0.22,0.52c0,0.13-0.05,0.31-0.16,0.52
		c-0.24,0.69-0.93,3.47-2.08,8.32c-1.44,6-2.25,10.11-2.44,12.32c-0.08,0.93,0.03,1.61,0.32,2.04c0.13,0.16,0.51,0.44,1.12,0.84
		l0.76-0.4c0.24-0.11,0.36-0.31,0.36-0.6c2.96-12.61,4.81-21.92,5.56-27.92C521.05,272.87,519.2,271.53,515.15,271.53z"/>
</g>
</svg>
